<svg width="46" height="49" viewBox="0 0 46 49" fill="none" xmlns="http://www.w3.org/2000/svg">
<path d="M17.75 46.2623L12.5 43.3115L4.04012 38.5565C2.77996 37.8482 2 36.5151 2 35.0695V16.1436C2 14.698 2.77996 13.3649 4.04012 12.6566L21.0401 3.10157C22.2572 2.41751 23.7428 2.41751 24.9599 3.10157L41.9599 12.6566C43.22 13.3649 44 14.698 44 16.1436V35.0696C44 36.5151 43.22 37.8482 41.9599 38.5565L33.5 43.3115L28.25 46.2623V46.2623C27.5633 46.6482 26.6945 46.3245 26.4278 45.5833L21.2584 31.2147" stroke="#8892B0" stroke-width="3.6" stroke-linecap="round"/>
<path d="M17.75 46.2623L12.5 43.3115L4.04012 38.5565C2.77996 37.8482 2 36.5151 2 35.0695V16.1436C2 14.698 2.77996 13.3649 4.04012 12.6566L21.0401 3.10157C22.2572 2.41751 23.7428 2.41751 24.9599 3.10157L41.9599 12.6566C43.22 13.3649 44 14.698 44 16.1436V35.0696C44 36.5151 43.22 37.8482 41.9599 38.5565L33.5 43.3115L28.25 46.2623V46.2623C27.5633 46.6482 26.6945 46.3245 26.4278 45.5833L21.2584 31.2147" stroke="url(#paint0_linear)" stroke-width="3.6" stroke-linecap="round"/>
<path d="M18.708 29.2109H13.7759L12.9146 32H9.06934L14.5449 17.0703H17.9287L23.4453 32H19.5796L18.708 29.2109ZM14.6372 26.4321H17.8467L16.2368 21.2539L14.6372 26.4321ZM24.5425 32V17.0703H29.9053C31.8262 17.0703 33.2856 17.4224 34.2837 18.1265C35.2886 18.8306 35.791 19.8525 35.791 21.1924C35.791 21.9648 35.6133 22.6245 35.2578 23.1714C34.9023 23.7183 34.3794 24.1216 33.689 24.3813C34.4683 24.5864 35.0664 24.9692 35.4834 25.5298C35.9004 26.0903 36.1089 26.7739 36.1089 27.5806C36.1089 29.0435 35.644 30.144 34.7144 30.8823C33.7915 31.6138 32.4209 31.9863 30.6025 32H24.5425ZM28.1416 25.6528V29.2314H30.5C31.1494 29.2314 31.6484 29.0845 31.9971 28.7905C32.3457 28.4897 32.52 28.0693 32.52 27.5293C32.52 26.2852 31.9014 25.6597 30.6641 25.6528H28.1416ZM28.1416 23.2944H30.0181C30.8042 23.2876 31.3647 23.144 31.6997 22.8638C32.0347 22.5835 32.2021 22.1699 32.2021 21.623C32.2021 20.9941 32.021 20.543 31.6587 20.2695C31.2964 19.9893 30.7119 19.8491 29.9053 19.8491H28.1416V23.2944Z" fill="url(#paint1_linear)"/>
<defs>
<linearGradient id="paint0_linear" x1="4.646" y1="-9.08595" x2="25.3495" y2="47.3626" gradientUnits="userSpaceOnUse">
<stop stop-color="#A8B2D1"/>
<stop offset="1" stop-color="white" stop-opacity="0"/>
</linearGradient>
<linearGradient id="paint1_linear" x1="37.1001" y1="12" x2="9.13694" y2="37.0411" gradientUnits="userSpaceOnUse">
<stop stop-color="#8892B0"/>
<stop offset="1" stop-color="#A8B2D1"/>
</linearGradient>
</defs>
</svg>
